<svg xmlns="http://www.w3.org/2000/svg" width="196" height="227" viewbox="0 0 196 227" preserveAspectRatio="none"><rect x="0" y="0" width="100%" height="100%" fill="rgb(118, 111, 100)" /><polyline points="0,18.93708882942,10.933333333333,0,32.8,0,43.733333333333,18.93708882942,32.8,37.874177658839,10.933333333333,37.874177658839,0,18.93708882942" stroke="#000" stroke-opacity="0.02" fill-opacity="0.054666666666667" fill="#ddd" transform="translate(-21.866666666667, -18.93708882942)" /><polyline points="0,18.93708882942,10.933333333333,0,32.8,0,43.733333333333,18.93708882942,32.8,37.874177658839,10.933333333333,37.874177658839,0,18.93708882942" stroke="#000" stroke-opacity="0.02" fill-opacity="0.054666666666667" fill="#ddd" transform="translate(174.93333333333, -18.93708882942)" /><polyline points="0,18.93708882942,10.933333333333,0,32.8,0,43.733333333333,18.93708882942,32.8,37.874177658839,10.933333333333,37.874177658839,0,18.93708882942" stroke="#000" stroke-opacity="0.02" fill-opacity="0.054666666666667" fill="#ddd" transform="translate(-21.866666666667, 208.30797712362)" /><polyline points="0,18.93708882942,10.933333333333,0,32.8,0,43.733333333333,18.93708882942,32.8,37.874177658839,10.933333333333,37.874177658839,0,18.93708882942" stroke="#000" stroke-opacity="0.02" fill-opacity="0.054666666666667" fill="#ddd" transform="translate(174.93333333333, 208.30797712362)" /><polyline points="0,18.93708882942,10.933333333333,0,32.8,0,43.733333333333,18.93708882942,32.8,37.874177658839,10.933333333333,37.874177658839,0,18.93708882942" stroke="#000" stroke-opacity="0.02" fill-opacity="0.080666666666667" fill="#222" transform="translate(10.933333333333, 0)" /><polyline points="0,18.93708882942,10.933333333333,0,32.8,0,43.733333333333,18.93708882942,32.8,37.874177658839,10.933333333333,37.874177658839,0,18.93708882942" stroke="#000" stroke-opacity="0.02" fill-opacity="0.080666666666667" fill="#222" transform="translate(10.933333333333, 227.24506595304)" /><polyline points="0,18.93708882942,10.933333333333,0,32.8,0,43.733333333333,18.93708882942,32.8,37.874177658839,10.933333333333,37.874177658839,0,18.93708882942" stroke="#000" stroke-opacity="0.02" fill-opacity="0.10666666666667" fill="#ddd" transform="translate(43.733333333333, -18.93708882942)" /><polyline points="0,18.93708882942,10.933333333333,0,32.8,0,43.733333333333,18.93708882942,32.8,37.874177658839,10.933333333333,37.874177658839,0,18.93708882942" stroke="#000" stroke-opacity="0.02" fill-opacity="0.10666666666667" fill="#ddd" transform="translate(43.733333333333, 208.30797712362)" /><polyline points="0,18.93708882942,10.933333333333,0,32.8,0,43.733333333333,18.93708882942,32.8,37.874177658839,10.933333333333,37.874177658839,0,18.93708882942" stroke="#000" stroke-opacity="0.02" fill-opacity="0.037333333333333" fill="#ddd" transform="translate(76.533333333333, 0)" /><polyline points="0,18.93708882942,10.933333333333,0,32.8,0,43.733333333333,18.93708882942,32.8,37.874177658839,10.933333333333,37.874177658839,0,18.93708882942" stroke="#000" stroke-opacity="0.02" fill-opacity="0.037333333333333" fill="#ddd" transform="translate(76.533333333333, 227.24506595304)" /><polyline points="0,18.93708882942,10.933333333333,0,32.8,0,43.733333333333,18.93708882942,32.8,37.874177658839,10.933333333333,37.874177658839,0,18.93708882942" stroke="#000" stroke-opacity="0.02" fill-opacity="0.098" fill="#222" transform="translate(109.33333333333, -18.93708882942)" /><polyline points="0,18.93708882942,10.933333333333,0,32.8,0,43.733333333333,18.93708882942,32.8,37.874177658839,10.933333333333,37.874177658839,0,18.93708882942" stroke="#000" stroke-opacity="0.02" fill-opacity="0.098" fill="#222" transform="translate(109.33333333333, 208.30797712362)" /><polyline points="0,18.93708882942,10.933333333333,0,32.8,0,43.733333333333,18.93708882942,32.8,37.874177658839,10.933333333333,37.874177658839,0,18.93708882942" stroke="#000" stroke-opacity="0.02" fill-opacity="0.13266666666667" fill="#222" transform="translate(142.13333333333, 0)" /><polyline points="0,18.93708882942,10.933333333333,0,32.8,0,43.733333333333,18.93708882942,32.8,37.874177658839,10.933333333333,37.874177658839,0,18.93708882942" stroke="#000" stroke-opacity="0.02" fill-opacity="0.13266666666667" fill="#222" transform="translate(142.13333333333, 227.24506595304)" /><polyline points="0,18.93708882942,10.933333333333,0,32.8,0,43.733333333333,18.93708882942,32.8,37.874177658839,10.933333333333,37.874177658839,0,18.93708882942" stroke="#000" stroke-opacity="0.02" fill-opacity="0.14133333333333" fill="#ddd" transform="translate(-21.866666666667, 18.93708882942)" /><polyline points="0,18.93708882942,10.933333333333,0,32.8,0,43.733333333333,18.93708882942,32.8,37.874177658839,10.933333333333,37.874177658839,0,18.93708882942" stroke="#000" stroke-opacity="0.02" fill-opacity="0.14133333333333" fill="#ddd" transform="translate(174.93333333333, 18.93708882942)" /><polyline points="0,18.93708882942,10.933333333333,0,32.8,0,43.733333333333,18.93708882942,32.8,37.874177658839,10.933333333333,37.874177658839,0,18.93708882942" stroke="#000" stroke-opacity="0.02" fill-opacity="0.098" fill="#222" transform="translate(10.933333333333, 37.874177658839)" /><polyline points="0,18.93708882942,10.933333333333,0,32.8,0,43.733333333333,18.93708882942,32.8,37.874177658839,10.933333333333,37.874177658839,0,18.93708882942" stroke="#000" stroke-opacity="0.02" fill-opacity="0.15" fill="#222" transform="translate(43.733333333333, 18.93708882942)" /><polyline points="0,18.93708882942,10.933333333333,0,32.8,0,43.733333333333,18.93708882942,32.8,37.874177658839,10.933333333333,37.874177658839,0,18.93708882942" stroke="#000" stroke-opacity="0.02" fill-opacity="0.15" fill="#222" transform="translate(76.533333333333, 37.874177658839)" /><polyline points="0,18.93708882942,10.933333333333,0,32.8,0,43.733333333333,18.93708882942,32.8,37.874177658839,10.933333333333,37.874177658839,0,18.93708882942" stroke="#000" stroke-opacity="0.02" fill-opacity="0.098" fill="#222" transform="translate(109.33333333333, 18.93708882942)" /><polyline points="0,18.93708882942,10.933333333333,0,32.8,0,43.733333333333,18.93708882942,32.8,37.874177658839,10.933333333333,37.874177658839,0,18.93708882942" stroke="#000" stroke-opacity="0.02" fill-opacity="0.072" fill="#ddd" transform="translate(142.13333333333, 37.874177658839)" /><polyline points="0,18.93708882942,10.933333333333,0,32.8,0,43.733333333333,18.93708882942,32.8,37.874177658839,10.933333333333,37.874177658839,0,18.93708882942" stroke="#000" stroke-opacity="0.02" fill-opacity="0.124" fill="#ddd" transform="translate(-21.866666666667, 56.811266488259)" /><polyline points="0,18.93708882942,10.933333333333,0,32.8,0,43.733333333333,18.93708882942,32.8,37.874177658839,10.933333333333,37.874177658839,0,18.93708882942" stroke="#000" stroke-opacity="0.02" fill-opacity="0.124" fill="#ddd" transform="translate(174.93333333333, 56.811266488259)" /><polyline points="0,18.93708882942,10.933333333333,0,32.8,0,43.733333333333,18.93708882942,32.8,37.874177658839,10.933333333333,37.874177658839,0,18.93708882942" stroke="#000" stroke-opacity="0.02" fill-opacity="0.028666666666667" fill="#222" transform="translate(10.933333333333, 75.748355317679)" /><polyline points="0,18.93708882942,10.933333333333,0,32.8,0,43.733333333333,18.93708882942,32.8,37.874177658839,10.933333333333,37.874177658839,0,18.93708882942" stroke="#000" stroke-opacity="0.02" fill-opacity="0.15" fill="#222" transform="translate(43.733333333333, 56.811266488259)" /><polyline points="0,18.93708882942,10.933333333333,0,32.8,0,43.733333333333,18.93708882942,32.8,37.874177658839,10.933333333333,37.874177658839,0,18.93708882942" stroke="#000" stroke-opacity="0.02" fill-opacity="0.089333333333333" fill="#ddd" transform="translate(76.533333333333, 75.748355317679)" /><polyline points="0,18.93708882942,10.933333333333,0,32.8,0,43.733333333333,18.93708882942,32.8,37.874177658839,10.933333333333,37.874177658839,0,18.93708882942" stroke="#000" stroke-opacity="0.02" fill-opacity="0.02" fill="#ddd" transform="translate(109.33333333333, 56.811266488259)" /><polyline points="0,18.93708882942,10.933333333333,0,32.8,0,43.733333333333,18.93708882942,32.8,37.874177658839,10.933333333333,37.874177658839,0,18.93708882942" stroke="#000" stroke-opacity="0.02" fill-opacity="0.02" fill="#ddd" transform="translate(142.13333333333, 75.748355317679)" /><polyline points="0,18.93708882942,10.933333333333,0,32.8,0,43.733333333333,18.93708882942,32.8,37.874177658839,10.933333333333,37.874177658839,0,18.93708882942" stroke="#000" stroke-opacity="0.02" fill-opacity="0.02" fill="#ddd" transform="translate(-21.866666666667, 94.685444147099)" /><polyline points="0,18.93708882942,10.933333333333,0,32.8,0,43.733333333333,18.93708882942,32.8,37.874177658839,10.933333333333,37.874177658839,0,18.93708882942" stroke="#000" stroke-opacity="0.02" fill-opacity="0.02" fill="#ddd" transform="translate(174.93333333333, 94.685444147099)" /><polyline points="0,18.93708882942,10.933333333333,0,32.8,0,43.733333333333,18.93708882942,32.8,37.874177658839,10.933333333333,37.874177658839,0,18.93708882942" stroke="#000" stroke-opacity="0.02" fill-opacity="0.13266666666667" fill="#222" transform="translate(10.933333333333, 113.62253297652)" /><polyline points="0,18.93708882942,10.933333333333,0,32.8,0,43.733333333333,18.93708882942,32.8,37.874177658839,10.933333333333,37.874177658839,0,18.93708882942" stroke="#000" stroke-opacity="0.02" fill-opacity="0.063333333333333" fill="#222" transform="translate(43.733333333333, 94.685444147099)" /><polyline points="0,18.93708882942,10.933333333333,0,32.8,0,43.733333333333,18.93708882942,32.8,37.874177658839,10.933333333333,37.874177658839,0,18.93708882942" stroke="#000" stroke-opacity="0.02" fill-opacity="0.037333333333333" fill="#ddd" transform="translate(76.533333333333, 113.62253297652)" /><polyline points="0,18.93708882942,10.933333333333,0,32.8,0,43.733333333333,18.93708882942,32.8,37.874177658839,10.933333333333,37.874177658839,0,18.93708882942" stroke="#000" stroke-opacity="0.02" fill-opacity="0.063333333333333" fill="#222" transform="translate(109.33333333333, 94.685444147099)" /><polyline points="0,18.93708882942,10.933333333333,0,32.8,0,43.733333333333,18.93708882942,32.8,37.874177658839,10.933333333333,37.874177658839,0,18.93708882942" stroke="#000" stroke-opacity="0.02" fill-opacity="0.063333333333333" fill="#222" transform="translate(142.13333333333, 113.62253297652)" /><polyline points="0,18.93708882942,10.933333333333,0,32.8,0,43.733333333333,18.93708882942,32.8,37.874177658839,10.933333333333,37.874177658839,0,18.93708882942" stroke="#000" stroke-opacity="0.02" fill-opacity="0.089333333333333" fill="#ddd" transform="translate(-21.866666666667, 132.55962180594)" /><polyline points="0,18.93708882942,10.933333333333,0,32.8,0,43.733333333333,18.93708882942,32.8,37.874177658839,10.933333333333,37.874177658839,0,18.93708882942" stroke="#000" stroke-opacity="0.02" fill-opacity="0.089333333333333" fill="#ddd" transform="translate(174.93333333333, 132.55962180594)" /><polyline points="0,18.93708882942,10.933333333333,0,32.8,0,43.733333333333,18.93708882942,32.8,37.874177658839,10.933333333333,37.874177658839,0,18.93708882942" stroke="#000" stroke-opacity="0.02" fill-opacity="0.089333333333333" fill="#ddd" transform="translate(10.933333333333, 151.49671063536)" /><polyline points="0,18.93708882942,10.933333333333,0,32.8,0,43.733333333333,18.93708882942,32.8,37.874177658839,10.933333333333,37.874177658839,0,18.93708882942" stroke="#000" stroke-opacity="0.02" fill-opacity="0.15" fill="#222" transform="translate(43.733333333333, 132.55962180594)" /><polyline points="0,18.93708882942,10.933333333333,0,32.8,0,43.733333333333,18.93708882942,32.8,37.874177658839,10.933333333333,37.874177658839,0,18.93708882942" stroke="#000" stroke-opacity="0.02" fill-opacity="0.028666666666667" fill="#222" transform="translate(76.533333333333, 151.49671063536)" /><polyline points="0,18.93708882942,10.933333333333,0,32.8,0,43.733333333333,18.93708882942,32.8,37.874177658839,10.933333333333,37.874177658839,0,18.93708882942" stroke="#000" stroke-opacity="0.02" fill-opacity="0.14133333333333" fill="#ddd" transform="translate(109.33333333333, 132.55962180594)" /><polyline points="0,18.93708882942,10.933333333333,0,32.8,0,43.733333333333,18.93708882942,32.8,37.874177658839,10.933333333333,37.874177658839,0,18.93708882942" stroke="#000" stroke-opacity="0.02" fill-opacity="0.054666666666667" fill="#ddd" transform="translate(142.13333333333, 151.49671063536)" /><polyline points="0,18.93708882942,10.933333333333,0,32.8,0,43.733333333333,18.93708882942,32.8,37.874177658839,10.933333333333,37.874177658839,0,18.93708882942" stroke="#000" stroke-opacity="0.02" fill-opacity="0.14133333333333" fill="#ddd" transform="translate(-21.866666666667, 170.43379946478)" /><polyline points="0,18.93708882942,10.933333333333,0,32.8,0,43.733333333333,18.93708882942,32.8,37.874177658839,10.933333333333,37.874177658839,0,18.93708882942" stroke="#000" stroke-opacity="0.02" fill-opacity="0.14133333333333" fill="#ddd" transform="translate(174.93333333333, 170.43379946478)" /><polyline points="0,18.93708882942,10.933333333333,0,32.8,0,43.733333333333,18.93708882942,32.8,37.874177658839,10.933333333333,37.874177658839,0,18.93708882942" stroke="#000" stroke-opacity="0.02" fill-opacity="0.15" fill="#222" transform="translate(10.933333333333, 189.3708882942)" /><polyline points="0,18.93708882942,10.933333333333,0,32.8,0,43.733333333333,18.93708882942,32.8,37.874177658839,10.933333333333,37.874177658839,0,18.93708882942" stroke="#000" stroke-opacity="0.02" fill-opacity="0.037333333333333" fill="#ddd" transform="translate(43.733333333333, 170.43379946478)" /><polyline points="0,18.93708882942,10.933333333333,0,32.8,0,43.733333333333,18.93708882942,32.8,37.874177658839,10.933333333333,37.874177658839,0,18.93708882942" stroke="#000" stroke-opacity="0.02" fill-opacity="0.098" fill="#222" transform="translate(76.533333333333, 189.3708882942)" /><polyline points="0,18.93708882942,10.933333333333,0,32.8,0,43.733333333333,18.93708882942,32.8,37.874177658839,10.933333333333,37.874177658839,0,18.93708882942" stroke="#000" stroke-opacity="0.02" fill-opacity="0.046" fill="#222" transform="translate(109.33333333333, 170.43379946478)" /><polyline points="0,18.93708882942,10.933333333333,0,32.8,0,43.733333333333,18.93708882942,32.8,37.874177658839,10.933333333333,37.874177658839,0,18.93708882942" stroke="#000" stroke-opacity="0.02" fill-opacity="0.072" fill="#ddd" transform="translate(142.13333333333, 189.3708882942)" /></svg>